<svg width="78" height="90" viewBox="0 0 78 90" fill="none" xmlns="http://www.w3.org/2000/svg">
<g clip-path="url(#clip0_1_3)">
<path d="M39 0C42.0817 0 44.5714 2.51367 44.5714 5.625V8.4375H47.3571C50.4388 8.4375 52.9286 10.9512 52.9286 14.0625C52.9286 17.1738 50.4388 19.6875 47.3571 19.6875H44.5714V28.125H71.0357C74.8835 28.125 78 31.2715 78 35.1562C78 36.0879 77.8259 37.002 77.4603 37.8633L64.0714 70.3125H13.9286L0.539732 37.8633C0.174107 37.002 0 36.0879 0 35.1562C0 31.2715 3.11652 28.125 6.96429 28.125H33.4286V19.6875H30.6429C27.5612 19.6875 25.0714 17.1738 25.0714 14.0625C25.0714 10.9512 27.5612 8.4375 30.6429 8.4375H33.4286V5.625C33.4286 2.51367 35.9183 0 39 0ZM6.72054 83.2148L13.9286 75.9375H64.0714L71.2795 83.2148C72.0107 83.9531 72.4286 84.9727 72.4286 86.0273C72.4286 88.2246 70.6701 90 68.4938 90H9.50625C7.32991 90 5.57143 88.2246 5.57143 86.0273C5.57143 84.9727 5.98929 83.9531 6.72054 83.2148Z" fill="black"/>
</g>
<defs>
<clipPath id="clip0_1_3">
<rect width="78" height="90" fill="white"/>
</clipPath>
</defs>
</svg>
